<svg id="Layer_1" enable-background="new 0 0 24 24" height="512" viewBox="0 0 24 24" width="512" xmlns="http://www.w3.org/2000/svg"><g fill="#607d8b"><path d="m22 8h-10c-.552 0-1-.448-1-1s.448-1 1-1h10c.552 0 1 .448 1 1s-.448 1-1 1z"/><path d="m22 13h-10c-.552 0-1-.448-1-1s.448-1 1-1h10c.552 0 1 .448 1 1s-.448 1-1 1z"/><path d="m22 18h-10c-.552 0-1-.448-1-1s.448-1 1-1h10c.552 0 1 .448 1 1s-.448 1-1 1z"/></g><path d="m17.5 6h-5.5c-.552 0-1 .448-1 1s.448 1 1 1h5.5z" fill="#546d79"/><path d="m17.5 11h-5.5c-.552 0-1 .448-1 1s.448 1 1 1h5.5z" fill="#546d79"/><path d="m17.5 16h-5.5c-.552 0-1 .448-1 1s.448 1 1 1h5.5z" fill="#546d79"/><path d="m8.761 11.45-3.5-3.25c-.219-.203-.537-.255-.811-.138-.273.119-.45.389-.45.688v2.25h-3c-.553 0-1 .448-1 1s.447 1 1 1h3v2.25c0 .298.177.568.45.688.097.041.198.062.3.062.186 0 .369-.069.511-.2l3.5-3.25c.152-.143.239-.342.239-.55s-.087-.408-.239-.55z" fill="#42a5f5"/><path d="m9 12h-9c0 .552.447 1 1 1h3v2.25c0 .298.177.568.45.687.097.042.198.063.3.063.186 0 .369-.069.511-.2l3.5-3.25c.152-.142.239-.342.239-.55z" fill="#3990d5"/><path d="m22 3h-20c-.552 0-1-.448-1-1s.448-1 1-1h20c.552 0 1 .448 1 1s-.448 1-1 1z" fill="#607d8b"/><path d="m22 23h-20c-.552 0-1-.448-1-1s.448-1 1-1h20c.552 0 1 .448 1 1s-.448 1-1 1z" fill="#607d8b"/><path d="m12 1h-10c-.552 0-1 .448-1 1s.448 1 1 1h10z" fill="#546d79"/><path d="m12 21h-10c-.552 0-1 .448-1 1s.448 1 1 1h10z" fill="#546d79"/></svg>